
Genre:Animation | Adventure | Comedy
Language:English
IMDb:http://www.imdb.com/title/tt1216475/
Source:RELIZLAB/IMAGINE/PhoneCAM-FU.Its.Free Thanks!

Format : MPEG-4
Format profile : Base Media
Codec ID : isom
File size : 1.14 GiB
Duration : 1h 34mn
Overall bit rate : 1 733 Kbps

Video
ID : 1
Format : AVC
Format/Info : Advanced Video Codec
Format profile : High@L4.1
Format settings, CABAC : Yes
Format settings, ReFrames : 3 frames
Codec ID : avc1
Codec ID/Info : Advanced Video Coding
Duration : 1h 34mn
Bit rate mode : Variable
Bit rate : 1 500 Kbps
Maximum bit rate : 5 192 Kbps
Width : 720 pixels
Height : 304 pixels
Display aspect ratio : 2.35:1
Frame rate mode : Constant
Frame rate : 25.000 fps
Color space : YUV
Chroma subsampling : 4:2:0
Bit depth : 8 bits
Scan type : Progressive
Bits/(Pixel*Frame) : 0.274
Stream size : 1 018 MiB (87%)
Writing library : x264

Audio
ID : 2
Format : AAC
Format/Info : Advanced Audio Codec
Format version : Version 4
Format profile : LC
Format settings, SBR : No
Codec ID : 40
Duration : 1h 34mn
Bit rate mode : Variable
Bit rate : 224 Kbps
Maximum bit rate : 260 Kbps
Channel(s) : 2 channels
Channel positions : Front: L R
Sampling rate : 44.1 KHz
Stream size : 151 MiB (13%)

Plot:
Star race car Lightning McQueen and his pal Mater head overseas to compete in the World Grand Prix race. But the road to the championship becomes rocky as Mater gets caught up in an intriguing adventure of his own: international espionage.


 
http://leetleech.org/images/62632221209244645413.png
 
http://leetleech.org/images/89965922498375363369.png
 
http://leetleech.org/images/28127503127070675953.png
 
http://leetleech.org/images/34135274856844445113.png
 
http://leetleech.org/images/10398584938355810460.png

